<?xml version="1.0" encoding="UTF-8" standalone="no"?><!DOCTYPE svg PUBLIC "-//W3C//DTD SVG 1.1//EN" "http://www.w3.org/Graphics/SVG/1.1/DTD/svg11.dtd"><svg width="100%" height="100%" viewBox="0 0 15844 16889" version="1.1" xmlns="http://www.w3.org/2000/svg" xmlns:xlink="http://www.w3.org/1999/xlink" xml:space="preserve" xmlns:serif="http://www.serif.com/" style="fill-rule:evenodd;clip-rule:evenodd;stroke-linejoin:round;stroke-miterlimit:2;"><path id="logo" d="M8725.16,6344.15c459.421,-1017.08 332.734,-2203.11 -331.15,-3100.2c-663.883,-897.088 -1761.1,-1364.89 -2868.04,-1222.79l-0.004,0c349.82,765.225 470.2,2715.15 -1107.83,4818.25c358.18,-692.917 512.001,-1679.04 485.305,-2924.17c-23.525,-1205.34 -590.346,-2335.53 -1542.31,-3075.22c-951.966,-739.696 -2187.16,-1009.71 -3360.95,-734.696c-0.179,-0.75 -0.183,-0.75 -0.183,-0.75c1550.23,3104.26 1499.78,5135.62 723.279,7176.25c-1114.98,5884.58 1030.13,9184.67 2789.89,9417.42c9487.71,1255.28 14055.1,-4035.8 11734.6,-6336.88c-1138.09,-1128.61 -4769.96,-2529.1 -7030.83,-2892.1c-0,-0 207.1,-458.488 508.212,-1125.1l0.029,-0.012Zm-3612.67,3337.51c-440.242,0 -797.742,357.5 -797.742,797.742c-0,440.312 357.5,797.812 797.742,797.812c440.333,0 797.812,-357.5 797.812,-797.812c0,-440.242 -357.483,-797.742 -797.812,-797.742Zm3261.65,-470.05c-440.242,0 -797.742,357.429 -797.742,797.742c-0,440.312 357.5,797.812 797.742,797.812c440.312,0 797.812,-357.483 797.812,-797.812c0,-440.313 -357.5,-797.742 -797.812,-797.742Z" style="fill:#fff;"/><g id="deliveboo"></g></svg>