<?xml version="1.0" encoding="UTF-8" standalone="no"?><!DOCTYPE svg PUBLIC "-//W3C//DTD SVG 1.1//EN" "http://www.w3.org/Graphics/SVG/1.1/DTD/svg11.dtd"><svg width="100%" height="100%" viewBox="0 0 74084 19717" version="1.1" xmlns="http://www.w3.org/2000/svg" xmlns:xlink="http://www.w3.org/1999/xlink" xml:space="preserve" xmlns:serif="http://www.serif.com/" style="fill-rule:evenodd;clip-rule:evenodd;stroke-linejoin:round;stroke-miterlimit:2;"><path id="logo" d="M9016.38,8090.12c459.42,-1017.08 332.733,-2203.1 -331.15,-3100.2c-663.884,-897.087 -1761.1,-1364.89 -2868.04,-1222.79l-0.004,-0c349.821,765.225 470.2,2715.14 -1107.83,4818.25c358.179,-692.917 512,-1679.04 485.304,-2924.17c-23.525,-1205.34 -590.346,-2335.53 -1542.31,-3075.22c-951.966,-739.696 -2187.16,-1009.71 -3360.95,-734.696c-0.18,-0.75 -0.184,-0.75 -0.184,-0.75c1550.23,3104.26 1499.78,5135.62 723.279,7176.25c-1114.98,5884.58 1030.13,9184.67 2789.89,9417.42c9487.71,1255.28 14055.1,-4035.8 11734.6,-6336.88c-1138.09,-1128.61 -4769.96,-2529.11 -7030.83,-2892.11c-0,0 207.1,-458.487 508.212,-1125.1l0.03,-0.013Zm-3612.67,3337.51c-440.242,-0 -797.742,357.5 -797.742,797.741c0,440.313 357.5,797.813 797.742,797.813c440.333,-0 797.812,-357.5 797.812,-797.813c0,-440.241 -357.483,-797.741 -797.812,-797.741Zm3261.65,-470.05c-440.242,-0 -797.742,357.429 -797.742,797.741c0,440.313 357.5,797.813 797.742,797.813c440.312,-0 797.812,-357.484 797.812,-797.813c0,-440.312 -357.5,-797.741 -797.812,-797.741Z" style="fill:#fff;"/><g id="deliveboo"><path d="M24631.4,9276.46l-12.155,-3268.16l1483.14,-0l0,7189.67c66.771,462.016 149.079,881.079 253.542,1154.79l-1553.02,0.159l-155.379,-745.367l-0,-8.608c-481.271,529.512 -1139.33,901.179 -1864.52,901.179c-1473.38,-0 -2669.63,-1393.16 -2669.63,-3053.68c-0,-1660.52 1196.25,-3008.68 2669.63,-3008.68c717.083,0 1368.56,319.375 1848.39,838.7l-0,0.004Zm-1502.33,743.334c845.854,-0 1461.96,611.266 1461.96,1433.66c0,822.484 -630.208,1421.09 -1476.06,1421.09c-845.85,-0 -1476.06,-598.609 -1476.06,-1421.09c0,-822.396 644.305,-1433.66 1490.15,-1433.66Z" style="fill:#fff;"/><path d="M27042.4,11050c9.183,-1486.48 1408.7,-2639.39 2897.5,-2639.39c1483.65,0 2883.32,1144.39 2902.25,2623.33c22.571,328.696 -13.296,862.205 -68.279,1080.3l-4135.99,0.938c77.188,143.733 179.463,276.908 301.355,391.787l1.875,-1.008c1.233,2.083 2.466,4.183 3.7,6.287c263.591,246.021 617.395,407.117 1006.22,407.55l0,6.284c652.567,22.729 1450.66,-170.346 1959.5,-434.234l717.446,1242.69c-892.429,514.479 -1843.75,749.721 -2690.61,721.213c-265.346,-1.371 -522.359,-38.055 -766.213,-105.467c-547.658,-138.683 -1015.1,-410.225 -1342.45,-808.892c-471.629,-499.704 -767.933,-1165.8 -785.937,-1899.38c-0.296,-6.371 -0.434,-12.725 -0.434,-19.166c-0.296,-16.355 -0.433,-32.688 -0.433,-49.042l0.433,-0l0,-519.167c0,-1.529 0,-3.041 0.071,-4.637Zm4283.25,-165.938c-149.008,-524.029 -453.558,-939.671 -1385.76,-939.671c-928.909,0 -1234.6,418.109 -1384.2,940.538c863.717,-0.067 1937,-0.292 2769.97,-0.867Z" style="fill:#fff;"/><path id="L" d="M33806.2,6025.08l1479.38,0l0,8328.54l-1492.05,0l12.675,-8328.54Z" style="fill:#fff;"/><g id="i"><rect x="36544.1" y="8561.75" width="1579.65" height="5790.38" style="fill:#fff;"/><circle cx="37327.6" cy="6859.04" r="958.196" style="fill:#fff;"/></g><path id="v" d="M40371.5,14356.2l-1533.06,-5789.67l1592.29,0l1145.77,4289l1145.76,-4289l1592.31,0l-1533.06,5789.67l-2410.02,0Z" style="fill:#fff;"/><path d="M44719.6,11050c9.255,-1486.48 1408.72,-2639.39 2897.5,-2639.39c1483.65,0 2883.32,1144.39 2902.28,2623.33c22.571,328.696 -13.316,862.205 -68.3,1080.3l-4135.99,0.938c77.187,143.733 179.479,276.908 301.354,391.787l1.892,-1.008c1.233,2.083 2.45,4.183 3.679,6.287c263.612,246.021 617.417,407.117 1006.23,407.55l0,6.284c652.554,22.729 1450.66,-170.346 1959.48,-434.234l717.45,1242.69c-892.433,514.479 -1843.75,749.721 -2690.61,721.213c-265.329,-1.371 -522.362,-38.055 -766.2,-105.467c-547.671,-138.683 -1015.12,-410.225 -1342.38,-808.892c-471.721,-499.704 -768.021,-1165.8 -786.025,-1899.38c-0.296,-6.371 -0.433,-12.725 -0.433,-19.166c-0.296,-16.355 -0.438,-32.688 -0.438,-49.042l0.438,-0l-0,-519.167c-0,-1.529 0.066,-3.041 0.066,-4.637Zm4283.29,-165.938c-149.029,-524.029 -453.558,-939.671 -1385.78,-939.671c-928.888,0 -1234.6,418.109 -1384.18,940.538c863.717,-0.067 1937,-0.292 2769.97,-0.867Z" style="fill:#fff;"/><path id="b" d="M55745,8977.92c230.258,-509.75 166.762,-1104.17 -165.967,-1553.79c-332.733,-449.612 -882.645,-684.066 -1437.43,-612.85c-0.025,0.004 -0.038,0.004 -0.038,0.004c175.33,383.53 235.663,1360.82 -555.241,2414.88c179.521,-347.288 256.612,-841.534 243.233,-1465.59c-11.792,-604.108 -295.879,-1170.55 -773,-1541.29c-477.125,-370.729 -1096.2,-506.058 -1684.49,-368.225c-0.091,-0.375 -0.095,-0.375 -0.095,-0.375c776.966,1555.85 751.683,2573.95 362.504,3596.71c-558.821,2949.34 516.3,4603.33 1398.28,4720c4755.21,629.141 7044.38,-2022.73 5881.33,-3176.02c-570.408,-565.654 -2390.69,-1267.58 -3523.82,-1449.51c-0,0 103.804,-229.808 254.729,-563.925l0.004,-0.016Zm-1810.67,1672.78c-220.65,0 -399.825,179.175 -399.825,399.825c0,220.683 179.175,399.858 399.825,399.858c220.692,0 399.858,-179.175 399.858,-399.858c0,-220.65 -179.166,-399.825 -399.858,-399.825Zm1634.73,-235.587c-220.646,-0 -399.825,179.141 -399.825,399.825c0,220.683 179.179,399.858 399.825,399.858c220.683,-0 399.863,-179.167 399.863,-399.859c-0,-220.683 -179.179,-399.824 -399.863,-399.824Z" style="fill:#fff;"/><path d="M62987.9,8421.25c1638.88,0 2969.4,1362.13 2969.4,3039.86c-0,1677.81 -1330.52,3039.93 -2969.4,3039.93c-1638.82,-0 -2969.34,-1362.12 -2969.34,-3039.93c0,-1677.73 1330.52,-3039.86 2969.34,-3039.86Zm4.325,1622.19c837.1,-0.001 1516.72,641.562 1516.72,1431.79c0,790.208 -679.616,1431.79 -1516.72,1431.79c-837.084,0 -1516.7,-641.579 -1516.7,-1431.79c-0,-790.225 679.616,-1431.79 1516.7,-1431.79Z" style="fill:#fff;"/><path d="M69607.1,8421.25c1638.82,0 2969.34,1362.13 2969.34,3039.86c0,1677.81 -1330.52,3039.93 -2969.34,3039.93c-1638.82,-0 -2969.39,-1362.12 -2969.39,-3039.93c-0,-1677.73 1330.58,-3039.86 2969.39,-3039.86Zm4.342,1622.19c837.1,-0.001 1516.72,641.562 1516.72,1431.79c-0,790.208 -679.621,1431.79 -1516.72,1431.79c-837.171,0 -1516.77,-641.579 -1516.77,-1431.79c0,-790.225 679.6,-1431.79 1516.77,-1431.79Z" style="fill:#fff;"/></g></svg>