<?xml version="1.0" encoding="UTF-8" standalone="no"?><!DOCTYPE svg PUBLIC "-//W3C//DTD SVG 1.1//EN" "http://www.w3.org/Graphics/SVG/1.1/DTD/svg11.dtd"><svg width="100%" height="100%" viewBox="0 0 52464 8703" version="1.1" xmlns="http://www.w3.org/2000/svg" xmlns:xlink="http://www.w3.org/1999/xlink" xml:space="preserve" xmlns:serif="http://www.serif.com/" style="fill-rule:evenodd;clip-rule:evenodd;stroke-linejoin:round;stroke-miterlimit:2;"><g id="deliveboo"><path d="M4518.02,3478.18l-12.154,-3268.16l1483.14,-0l0,7189.67c66.771,462.017 149.08,881.08 253.542,1154.79l-1553.02,0.158l-155.379,-745.366l0,-8.609c-481.271,529.513 -1139.33,901.18 -1864.52,901.18c-1473.38,-0 -2669.63,-1393.16 -2669.63,-3053.68c-0,-1660.52 1196.25,-3008.68 2669.63,-3008.68c717.084,0 1368.56,319.375 1848.39,838.7l-0,0.004Zm-1502.33,743.334c845.854,-0 1461.96,611.266 1461.96,1433.66c0,822.483 -630.208,1421.09 -1476.06,1421.09c-845.85,-0 -1476.06,-598.609 -1476.06,-1421.09c-0,-822.396 644.304,-1433.66 1490.15,-1433.66Z" style="fill:#fff;"/><path d="M6928.98,5251.77c9.184,-1486.48 1408.7,-2639.39 2897.5,-2639.39c1483.65,-0 2883.32,1144.39 2902.25,2623.33c22.571,328.696 -13.295,862.204 -68.279,1080.3l-4135.99,0.938c77.187,143.733 179.462,276.908 301.354,391.787l1.875,-1.008c1.233,2.083 2.466,4.183 3.7,6.287c263.591,246.021 617.396,407.117 1006.22,407.55l0,6.284c652.567,22.729 1450.66,-170.346 1959.5,-434.234l717.446,1242.69c-892.429,514.479 -1843.75,749.721 -2690.61,721.212c-265.346,-1.37 -522.359,-38.054 -766.213,-105.466c-547.658,-138.684 -1015.1,-410.225 -1342.45,-808.892c-471.629,-499.704 -767.933,-1165.8 -785.937,-1899.38c-0.296,-6.371 -0.434,-12.725 -0.434,-19.167c-0.295,-16.354 -0.433,-32.687 -0.433,-49.041l0.433,-0l0,-519.167c0,-1.529 0,-3.042 0.071,-4.637Zm4283.25,-165.938c-149.008,-524.029 -453.558,-939.671 -1385.76,-939.671c-928.909,0 -1234.6,418.109 -1384.2,940.538c863.716,-0.067 1937,-0.292 2769.97,-0.867Z" style="fill:#fff;"/><path id="L" d="M13692.9,226.809l1479.38,0l0,8328.54l-1492.05,-0l12.675,-8328.54Z" style="fill:#fff;"/><g id="i"><rect x="16430.7" y="2763.48" width="1579.65" height="5790.38" style="fill:#fff;"/><circle cx="17214.2" cy="1060.77" r="958.196" style="fill:#fff;"/></g><path id="v" d="M20258.1,8557.98l-1533.06,-5789.67l1592.29,0l1145.77,4289l1145.76,-4289l1592.31,0l-1533.05,5789.67l-2410.02,-0Z" style="fill:#fff;"/><path d="M24606.2,5251.77c9.254,-1486.48 1408.72,-2639.39 2897.5,-2639.39c1483.64,-0 2883.32,1144.39 2902.28,2623.33c22.57,328.696 -13.317,862.204 -68.3,1080.3l-4135.99,0.938c77.188,143.733 179.479,276.908 301.354,391.787l1.892,-1.008c1.233,2.083 2.45,4.183 3.679,6.287c263.613,246.021 617.417,407.117 1006.23,407.55l0,6.284c652.555,22.729 1450.66,-170.346 1959.48,-434.234l717.45,1242.69c-892.434,514.479 -1843.75,749.721 -2690.61,721.212c-265.329,-1.37 -522.362,-38.054 -766.2,-105.466c-547.671,-138.684 -1015.12,-410.225 -1342.38,-808.892c-471.721,-499.704 -768.021,-1165.8 -786.025,-1899.38c-0.296,-6.371 -0.433,-12.725 -0.433,-19.167c-0.296,-16.354 -0.438,-32.687 -0.438,-49.041l0.438,-0l-0,-519.167c-0,-1.529 0.067,-3.042 0.067,-4.637Zm4283.29,-165.938c-149.029,-524.029 -453.558,-939.671 -1385.78,-939.671c-928.888,0 -1234.6,418.109 -1384.18,940.538c863.716,-0.067 1937,-0.292 2769.97,-0.867Z" style="fill:#fff;"/><path id="b" d="M35631.6,3179.64c230.259,-509.75 166.763,-1104.17 -165.966,-1553.79c-332.734,-449.612 -882.646,-684.067 -1437.43,-612.85c-0.025,0.004 -0.037,0.004 -0.037,0.004c175.329,383.529 235.662,1360.82 -555.242,2414.88c179.521,-347.287 256.612,-841.533 243.233,-1465.59c-11.791,-604.109 -295.879,-1170.55 -773,-1541.29c-477.125,-370.729 -1096.2,-506.058 -1684.49,-368.225c-0.092,-0.375 -0.096,-0.375 -0.096,-0.375c776.967,1555.85 751.683,2573.95 362.504,3596.71c-558.821,2949.34 516.3,4603.33 1398.28,4720c4755.21,629.141 7044.38,-2022.73 5881.33,-3176.02c-570.409,-565.654 -2390.69,-1267.58 -3523.82,-1449.51c-0,0 103.804,-229.808 254.729,-563.925l0.004,-0.016Zm-1810.67,1672.78c-220.65,-0 -399.825,179.175 -399.825,399.825c0,220.683 179.175,399.858 399.825,399.858c220.692,0 399.859,-179.175 399.859,-399.858c-0,-220.65 -179.167,-399.825 -399.859,-399.825Zm1634.73,-235.588c-220.645,0 -399.825,179.142 -399.825,399.825c0,220.684 179.18,399.859 399.825,399.859c220.684,-0 399.863,-179.167 399.863,-399.859c-0,-220.683 -179.179,-399.825 -399.863,-399.825Z" style="fill:#fff;"/><path d="M42874.5,2622.98c1638.88,-0 2969.4,1362.13 2969.4,3039.86c-0,1677.81 -1330.52,3039.93 -2969.4,3039.93c-1638.82,-0 -2969.34,-1362.12 -2969.34,-3039.93c0,-1677.73 1330.52,-3039.86 2969.34,-3039.86Zm4.325,1622.19c837.1,0 1516.72,641.563 1516.72,1431.79c-0,790.208 -679.617,1431.79 -1516.72,1431.79c-837.083,0 -1516.7,-641.579 -1516.7,-1431.79c-0,-790.225 679.617,-1431.79 1516.7,-1431.79Z" style="fill:#fff;"/><path d="M49493.7,2622.98c1638.82,-0 2969.34,1362.13 2969.34,3039.86c0,1677.81 -1330.52,3039.93 -2969.34,3039.93c-1638.82,-0 -2969.39,-1362.12 -2969.39,-3039.93c-0,-1677.73 1330.58,-3039.86 2969.39,-3039.86Zm4.341,1622.19c837.1,0 1516.72,641.563 1516.72,1431.79c0,790.208 -679.621,1431.79 -1516.72,1431.79c-837.171,0 -1516.77,-641.579 -1516.77,-1431.79c0,-790.225 679.6,-1431.79 1516.77,-1431.79Z" style="fill:#fff;"/></g></svg>